{"asset":{"version":"2.0","generator":"babylon.js glTF exporter for 3dsmax 2019 v20191010.2"},"scene":0,"scenes":[{"nodes":[0,1,2,3,4],"extensions":{}}],"nodes":[{"mesh":0,"translation":[0.528262138,2.17145538,-0.316957384],"rotation":[0.0,0.0,0.0,1.0],"scale":[1.0,1.0,1.0],"name":"Box001"},{"mesh":1,"translation":[0.471547544,8.801863,-0.241534233],"rotation":[0.0,0.0,0.0,1.0],"scale":[1.0,1.0,1.0],"name":"Sphere001"},{"mesh":2,"translation":[0.0,0.1076684,4.706335E-09],"rotation":[0.0,0.0,0.0,1.0],"scale":[1.0,1.0,1.0],"name":"Box003"},{"mesh":3,"translation":[0.7328346,4.52382,8.927086],"rotation":[-0.5031132,-0.4986184,-0.501362264,-0.496883035],"scale":[0.99999994,0.99999994,1.0],"name":"Line001"},{"translation":[0.0,0.0,0.0],"rotation":[0.0,0.0,0.0,1.0],"scale":[1.0,1.0,1.0],"name":"Default light"}],"meshes":[{"primitives":[{"attributes":{"POSITION":1,"NORMAL":2,"COLOR_0":3,"TEXCOORD_0":4},"indices":0}],"name":"Box001"},{"primitives":[{"attributes":{"POSITION":6,"NORMAL":7,"TEXCOORD_0":8},"indices":5}],"name":"Sphere001"},{"primitives":[{"attributes":{"POSITION":10,"NORMAL":11,"TEXCOORD_0":12},"indices":9}],"name":"Box003"},{"primitives":[{"attributes":{"POSITION":14,"NORMAL":15},"indices":13}],"name":"Line001"}],"accessors":[{"bufferView":0,"componentType":5123,"count":84,"type":"SCALAR","name":"accessorIndices"},{"bufferView":1,"componentType":5126,"count":84,"max":[4.92127371,9.842559,4.92120838],"min":[-4.921246,3.913213E-05,-4.92131138],"type":"VEC3","name":"accessorPositions"},{"bufferView":1,"byteOffset":1008,"componentType":5126,"count":84,"type":"VEC3","name":"accessorNormals"},{"bufferView":2,"componentType":5126,"count":84,"type":"VEC4","name":"accessorColors"},{"bufferView":3,"componentType":5126,"count":84,"type":"VEC2","name":"accessorUVs"},{"bufferView":0,"byteOffset":168,"componentType":5123,"count":912,"type":"SCALAR","name":"accessorIndices"},{"bufferView":1,"byteOffset":2016,"componentType":5126,"count":912,"max":[3.83234835,3.85866141,3.793035],"min":[-3.83234787,-3.85866141,-3.845482],"type":"VEC3","name":"accessorPositions"},{"bufferView":1,"byteOffset":12960,"componentType":5126,"count":912,"type":"VEC3","name":"accessorNormals"},{"bufferView":3,"byteOffset":672,"componentType":5126,"count":912,"type":"VEC2","name":"accessorUVs"},{"bufferView":0,"byteOffset":1992,"componentType":5123,"count":36,"type":"SCALAR","name":"accessorIndices"},{"bufferView":1,"byteOffset":23904,"componentType":5126,"count":36,"max":[9.84252,1.968504,9.84252],"min":[-9.84252,0.0,-9.84252],"type":"VEC3","name":"accessorPositions"},{"bufferView":1,"byteOffset":24336,"componentType":5126,"count":36,"type":"VEC3","name":"accessorNormals"},{"bufferView":3,"byteOffset":7968,"componentType":5126,"count":36,"type":"VEC2","name":"accessorUVs"},{"bufferView":0,"byteOffset":2064,"componentType":5123,"count":108,"type":"SCALAR","name":"accessorIndices"},{"bufferView":1,"byteOffset":24768,"componentType":5126,"count":108,"max":[2.7939198,0.393700778,1.4492507],"min":[-2.25793719,0.0,-1.35848427],"type":"VEC3","name":"accessorPositions"},{"bufferView":1,"byteOffset":26064,"componentType":5126,"count":108,"type":"VEC3","name":"accessorNormals"}],"bufferViews":[{"buffer":0,"byteLength":2280,"name":"bufferViewScalar"},{"buffer":0,"byteOffset":2280,"byteLength":27360,"byteStride":12,"name":"bufferViewFloatVec3"},{"buffer":0,"byteOffset":29640,"byteLength":1344,"byteStride":16,"name":"bufferViewFloatVec4"},{"buffer":0,"byteOffset":30984,"byteLength":8256,"byteStride":8,"name":"bufferViewFloatVec2"}],"buffers":[{"uri":"rect-sphere.bin","byteLength":39240}]}